
        <svg xmlns="http://www.w3.org/2000/svg" xmlns:xlink="http://www.w3.org/1999/xlink" version="1.1" width="3148.09189291817" 
        height="767.1160053161192" viewBox="0 0 3148.09189291817 767.1160053161192">
			
			<g transform="scale(7.404594645908487) translate(10, 10)">
				<defs id="SvgjsDefs18541"></defs><g id="SvgjsG18542" featureKey="symbolGroupContainer" transform="matrix(0.95,0,0,0.95,0,0)" fill="#1583e9"><rect xmlns="http://www.w3.org/2000/svg" width="94" height="88" rx="10" ry="10"></rect></g><g id="SvgjsG18543" featureKey="LwVBM5-0" transform="matrix(0.7121619672952744,0,0,0.7121619672952744,9.31485019507409,6.345150358042428)" fill="#ffffff"><g xmlns="http://www.w3.org/2000/svg"><g><path d="M63.874,35.927c-6.34,0-13.135-2.096-20.776-6.412c-12.87-7.275-16.649-4.023-23.515,1.875    c-1.875,1.617-4.697,1.398-6.307-0.477c-1.611-1.873-1.395-4.697,0.477-6.307c7.576-6.512,15.412-13.244,33.746-2.881    c6.176,3.488,11.683,5.256,16.375,5.256c7.156,0,11.93-4.1,16.544-8.064c1.88-1.611,4.7-1.393,6.308,0.477    c1.607,1.875,1.395,4.699-0.477,6.307C80.942,30.257,74.345,35.927,63.874,35.927z"></path></g><g><path d="M63.874,59.78c-6.34,0-13.135-2.096-20.776-6.412c-12.87-7.279-16.649-4.027-23.515,1.875    c-1.875,1.613-4.697,1.398-6.307-0.477c-1.611-1.873-1.395-4.697,0.477-6.307c7.576-6.512,15.412-13.244,33.746-2.881    c6.176,3.488,11.683,5.256,16.375,5.256c7.156,0,11.93-4.1,16.544-8.064c1.88-1.611,4.7-1.393,6.308,0.477    c1.607,1.875,1.395,4.699-0.477,6.307C80.942,54.11,74.345,59.78,63.874,59.78z"></path></g><g><path d="M63.874,83.634c-6.34,0-13.135-2.098-20.776-6.412c-12.87-7.279-16.649-4.027-23.515,1.875    c-1.875,1.613-4.697,1.398-6.307-0.477c-1.611-1.873-1.395-4.697,0.477-6.309c7.576-6.51,15.412-13.242,33.746-2.879    c6.176,3.488,11.683,5.256,16.375,5.256c7.156,0,11.93-4.1,16.544-8.066c1.88-1.609,4.7-1.391,6.308,0.479    c1.607,1.875,1.395,4.699-0.477,6.307C80.942,77.964,74.345,83.634,63.874,83.634z"></path></g></g></g><g id="SvgjsG18544" featureKey="YhTCwJ-0" transform="matrix(3.0437190142537105,0,0,3.0437190142537105,103.70392961185054,1.737685914477737)" fill="#000000"><path d="M1.74 7.76 l8.2 0 l0 1.16 l-7 0 l0 4.38 l5.8 0 l0 1.16 l-5.8 0 l0 4.38 l7 0 l0 1.16 l-8.2 0 l0 -12.24 z M19.560000000000002 18.32 l0 1.38 c-0.94 0.32 -1.96 0.44 -2.96 0.44 c-3.12 0 -4.88 -2.2 -4.88 -5.12 c0 -3.06 1.86 -5.12 4.88 -5.12 c1 0 2.02 0.12 2.96 0.44 l0 1.38 c-0.88 -0.46 -1.98 -0.58 -2.96 -0.58 c-2.64 0 -3.68 1.44 -3.68 3.86 c0 2.56 1.18 3.9 3.68 3.9 c0.88 0 2.18 -0.16 2.96 -0.58 z M25.88 18.94 c2.44 0 3.5 -1.76 3.5 -3.94 c0 -0.98 -0.2 -2.02 -0.82 -2.8 c-0.74 -0.82 -1.58 -1.14 -2.68 -1.14 c-2.44 0 -3.5 1.74 -3.5 3.94 c0 0.94 0.2 2.06 0.84 2.78 c0.64 0.82 1.64 1.16 2.66 1.16 z M25.88 20.1 c-2.98 0 -4.7 -2.32 -4.7 -5.1 c0 -2.88 1.78 -5.1 4.7 -5.1 c3 0 4.7 2.3 4.7 5.1 c0 2.88 -1.8 5.1 -4.7 5.1 z M45.64 16.7 l-6.32 0 l-1.38 3.3 l-1.26 0 l5.2 -12.24 l1.2 0 l5.2 12.24 l-1.26 0 z M39.8 15.54 l5.36 0 l-2.68 -6.4 z M50.76 10 l1.2 0 l0 10 l-1.2 0 l0 -10 z M51.36 8.46 c-0.66 0 -1.14 -0.48 -1.14 -1.14 c0 -0.68 0.46 -1.12 1.14 -1.12 s1.12 0.42 1.12 1.12 c0 0.68 -0.44 1.14 -1.12 1.14 z M56.16 15 l0 5 l-1.2 0 l0 -4.98 c0 -2.72 1.56 -5.12 4.42 -5.12 c0.24 0 0.44 0 0.58 0.02 s0.3 0.06 0.44 0.08 l0 1.16 c-0.2 -0.02 -0.34 -0.06 -0.42 -0.08 s-0.22 -0.02 -0.44 -0.02 c-2.54 0 -3.38 1.74 -3.38 3.94 z M75.34 18.84 l0 1.16 l-8.2 0 l0 -12.24 l1.2 0 l0 11.08 l7 0 z M85.24000000000001 15 c-0.08 -2.26 -1 -3.94 -3.46 -3.94 c-2.5 0 -3.54 1.7 -3.54 3.94 c0 1.48 0.48 3 1.92 3.62 c0.44 0.22 0.98 0.32 1.6 0.32 c2.5 0 3.48 -1.6 3.48 -3.94 z M87.24000000000001 20 l-1.2 0 c-0.14 -0.34 -0.26 -0.66 -0.34 -0.98 c-0.1 -0.32 -0.18 -0.64 -0.24 -0.96 c-0.84 1.36 -2.2 2.04 -3.78 2.04 c-2.96 0 -4.64 -2.38 -4.64 -5.12 c0 -2.92 1.82 -5.08 4.74 -5.08 c3.06 0 4.58 2.32 4.66 5.1 c0.02 0.26 0.02 0.56 0.02 0.92 c0 1.4 0.22 2.8 0.78 4.08 z M90.84 15 c0 2.32 1 3.94 3.48 3.94 c2.5 0 3.52 -1.7 3.52 -3.94 c0 -2.38 -1.12 -3.94 -3.52 -3.94 c-2.48 0 -3.48 1.62 -3.48 3.94 z M89.64 6 l1.2 0 l0 5.84 c0.78 -1.3 2.06 -1.94 3.56 -1.94 c2.96 0 4.64 2.36 4.64 5.1 c0 2.9 -1.8 5.1 -4.72 5.1 c-3.04 0 -4.68 -2.3 -4.68 -5.1 l0 -9 z"></path></g>
			</g>
		</svg>
	